<?xml version="1.0" standalone="no"?>
<!DOCTYPE svg PUBLIC "-//W3C//DTD SVG 20010904//EN"
 "http://www.w3.org/TR/2001/REC-SVG-20010904/DTD/svg10.dtd">
<svg version="1.0" xmlns="http://www.w3.org/2000/svg"
 width="1040.000000pt" height="1040.000000pt" viewBox="0 0 1040.000000 1040.000000"
 preserveAspectRatio="xMidYMid meet">
<metadata>
Created by potrace 1.11, written by Peter Selinger 2001-2013
</metadata>
<g transform="translate(0.000000,1040.000000) scale(0.100000,-0.100000)"
fill="#000000" stroke="none">
<path d="M280 8479 c-110 -13 -197 -75 -248 -178 -36 -74 -37 -183 -2 -257 18
-38 146 -173 591 -619 l568 -570 1 -115 c0 -63 2 -128 4 -145 2 -16 7 -61 11
-100 54 -566 360 -1295 778 -1857 145 -196 226 -288 417 -478 155 -154 229
-220 405 -358 262 -205 719 -458 1030 -571 33 -12 69 -26 80 -31 29 -13 260
-87 330 -106 92 -24 247 -62 278 -68 15 -2 35 -7 45 -10 23 -7 247 -47 297
-52 22 -3 66 -9 99 -14 32 -5 61 -9 65 -8 3 1 31 -2 61 -6 58 -7 108 -11 280
-22 200 -13 692 -7 865 11 55 5 163 16 205 20 55 5 143 15 170 20 45 8 86 15
121 19 69 9 297 58 407 87 63 17 115 29 116 27 1 -2 14 -57 29 -123 39 -173
43 -189 100 -345 30 -85 109 -255 148 -320 87 -144 243 -316 331 -362 67 -35
174 -32 250 7 108 56 208 156 322 322 31 44 56 84 56 87 0 4 11 24 25 47 81
128 215 436 285 654 71 222 144 557 164 750 9 79 15 154 21 229 l5 68 121 122
c468 469 838 1050 1058 1661 82 228 135 439 186 730 3 17 8 57 11 90 3 33 8
62 9 66 7 11 19 258 18 379 0 121 -9 289 -17 340 -3 14 -7 43 -10 65 -3 22 -7
56 -10 75 -3 19 -7 59 -11 88 -10 96 -26 112 -185 191 -321 158 -739 280
-1124 327 -22 3 -55 7 -72 9 -208 28 -623 23 -844 -11 -19 -2 -55 -7 -80 -10
-65 -8 -270 -51 -378 -80 -293 -78 -642 -224 -894 -373 -47 -28 -89 -51 -92
-51 -3 0 -36 -14 -73 -31 -94 -43 -110 -49 -173 -65 -137 -35 -352 -38 -602
-8 -21 2 -57 6 -80 9 -248 29 -690 27 -818 -5 -19 -5 -53 -11 -75 -15 -100
-14 -352 -89 -437 -129 -155 -74 -251 -272 -217 -450 16 -86 56 -151 159 -261
142 -152 205 -258 193 -325 -11 -65 -119 -151 -267 -213 -92 -39 -266 -92
-328 -102 -21 -3 -53 -7 -70 -10 -150 -24 -239 -30 -438 -29 -171 0 -261 6
-335 20 -11 2 -33 6 -50 9 -177 30 -402 114 -522 196 -23 16 -44 29 -47 29
-24 0 -221 199 -268 271 -45 68 -114 203 -123 242 -7 24 3 38 106 143 63 63
124 135 137 159 44 88 44 193 -1 284 -15 29 -163 185 -471 493 -248 248 -465
461 -482 474 -70 54 -83 55 -579 60 -253 2 -464 6 -470 7 -5 2 -35 0 -65 -4z"/>
<path d="M2600 8475 c-317 -65 -431 -471 -195 -694 196 -186 516 -136 642 99
40 74 52 129 48 214 -11 256 -242 434 -495 381z"/>
</g>
</svg>
